# xmcd
#
# Track frame offsets: 
#        150
#        14215
#        30322
#        47472
#        68035
#        81057
#        95007
#        108752
#        124557
#        138440
#
# Disc length: 2007 seconds
#
# Revision: 4
# Processed by: cddbd v1.5.2PL0 Copyright (c) Steve Scherf et al.
# Submitted via: ExactAudioCopy v0.99pb5
#
DISCID=7807d50a
DTITLE=Delbert McClinton - Classics Volume One
DYEAR=1994
DGENRE=Blues
TTITLE0=Shotgun Rider
TTITLE1=I Can't Quit You
TTITLE2=Giving It Up For Your Love
TTITLE3=The Jealous Kind
TTITLE4=Going Back To Louisiana
TTITLE5=Baby Ruth
TTITLE6=Bright Side Of The Road
TTITLE7=Take Me To The River
TTITLE8=Shaky Ground
TTITLE9=My Sweet Baby
EXTD=
EXTT0=
EXTT1=
EXTT2=
EXTT3=
EXTT4=
EXTT5=
EXTT6=
EXTT7=
EXTT8=
EXTT9=
PLAYORDER=
